# xmcd CD database file
#
# Track frame offsets:
#	150
#	3153
#	10519
#	21596
#	24523
#	35410
#	46559
#	51799
#	57796
#	61181
#	67356
#	78554
#	83522
#	90155
#	94825
#	112103
#	118180
#	124063
#	129347
#	136008
#	148256
#	159558
#	175527
#	190475
#	196050
#	223359
#
# Disc length: 3037 seconds
#
# Revision: 0
# Processed by: cddbd v1.5.1PL0 Copyright (c) Steve Scherf et al.
# Submitted via: CDex 1.51
#
DISCID=5c0bdb1a
DTITLE=G.E.N.E. - Polynesia Percussion
DYEAR=1998
DGENRE=New Age
TTITLE0=Ocean, Croatian News Agency Poetry Polynesia
TTITLE1=Vocals Luki Luki
TTITLE2=Ocean, Drums
TTITLE3=Ocean, Choir, Croatian News Agency Song, Percussion
TTITLE4=Vocals, Percussion, Vocals
TTITLE5=Ocean, Song, Percussion
TTITLE6=Wind, Birds, Pig Man's Voice
TTITLE7=Guitar, Luki Luki Song
TTITLE8=Forest, Birds, Croatian News Agency Song
TTITLE9=Forest, Percussion
TTITLE10=Forest, Percussion
TTITLE11=Forest, Choir
TTITLE12=Forest, Percussion, Vocals
TTITLE13=Fire, Wind, Birds, Croatian News Agency Song
TTITLE14=Forest, Percussion
TTITLE15=Crickets, Choir, Drums
TTITLE16=Choir, Drums, Magician's Voice
TTITLE17=Choir, Vocals, Percussion
TTITLE18=Crickets, Choir, Magician's Voice, Choir
TTITLE19=Wind, Thunder, Rain, Forest
TTITLE20=Forest, Croatian News Agency Poetry French, Percussion
TTITLE21=Forest, Song Luki Luki
TTITLE22=Vocals, Guitar, Drums
TTITLE23=Forest, Ocean, Song
TTITLE24=Ocean, Song, Percussion
TTITLE25=Ocean, Choir
EXTD=YEAR: 1998
EXTT0=
EXTT1=
EXTT2=
EXTT3=
EXTT4=
EXTT5=
EXTT6=
EXTT7=
EXTT8=
EXTT9=
EXTT10=
EXTT11=
EXTT12=
EXTT13=
EXTT14=
EXTT15=
EXTT16=
EXTT17=
EXTT18=
EXTT19=
EXTT20=
EXTT21=
EXTT22=
EXTT23=
EXTT24=
EXTT25=
PLAYORDER=
